<svg version="1.1" xmlns="http://www.w3.org/2000/svg" xmlns:xlink="http://www.w3.org/1999/xlink" x="0px" y="0px"
	 width="1013.01px" height="984.04px" viewBox="0 0 1013.01 984.04" style="enable-background:new 0 0 1013.01 984.04;"
	 xml:space="preserve">
<g id="bench">
	<polygon style="fill:#A3532B;" points="681.002,236.792 141.003,884.042 278.688,912.55 701.668,238.821 	"/>
	<polygon style="fill:#E5BF23;" points="677.002,236.792 130,868.04 271,897.04 697.668,238.821 	"/>
	<path style="fill:#A3532B;" d="M711.234,237.821c-0.772,1.611,12.768,4.728,12.768,4.728L409,943.04l-101-11
		C308,932.04,712.486,235.213,711.234,237.821z"/>
	<path style="fill:#E5BF23;" d="M707.234,237.821c-0.772,1.611,12.768,4.728,12.768,4.728L402,932.04l-94-11
		C308,921.04,708.486,235.213,707.234,237.821z"/>
	<polygon style="fill:#A3532B;" points="415,952.04 733.668,237.821 751.357,236.418 539,962.04 	"/>
	<polygon style="fill:#E5BF23;" points="415,941.04 729.668,237.821 748.357,236.418 528,952.04 	"/>
	<polygon style="fill:#A3532B;" points="543.667,972.04 661.401,984.04 774.505,257.04 753,257.04 	"/>
	<polygon style="fill:#E5BF23;" points="543.667,962.04 649.594,972.04 774.505,257.04 753,257.04 	"/>
	<polygon style="fill:#A3532B;" points="661.835,210.866 658.418,175.124 41,620.925 63,824.04 	"/>
	<polygon style="fill:#E5BF23;" points="662.446,217.866 658.835,182.124 51,628.72 73,824.04 	"/>
	<polygon style="fill:#A3532B;" points="10,615.04 649.594,158.707 628.668,130.707 0,439.04 	"/>
	<polygon style="fill:#E5BF23;" points="27,615.04 649.594,163.707 628.668,135.707 18,452.12 	"/>
</g>
<g id="legs">
	<path id="l-leg_2_" style="fill:#FFBD6A;" d="M810.844,219.071c10.938,7.812,43.934,58.437,55.469,76.562
		c5.469,8.594,3.875,3.245,10.125,7.933c13.139,9.854,51.594,55.349,80.311,81.13c17.377,21.875,23.288,21.31,29.877,24.219
		c10.115,4.467,10.115,4.467,16.776,7.312c4.819,2.059,14.474,20.813,6.661,23.157s-28.159-4.183-32.031-10.055
		c-6.25-9.477-15.469-2.052-21.283-10.258s-17.779-25.781-20.123-25c-4.688-7.812-39.844-23.438-55.967-40.382
		c-6.869-4.681-97.139-86.181-102.227-97.899C771.781,238.602,799.906,211.258,810.844,219.071z"/>
	<path id="l-leg-shadow_2_" style="fill:#E58757;" d="M830.334,285.477c-15.244-0.781-38.078-22.988-39.953-22.988
		s-24.105-8.146-10.954-21.536c17.011-17.319,19.626-9.603,52.907,21.743c6.447,6.072,10.056,14.606,10.056,14.606
		c9.86,7.394,31.81,65.283,43.056,85.028C885.445,362.331,840.236,285.985,830.334,285.477z"/>
	<path id="r-leg_1_" style="fill:#FFBD6A;" d="M899.125,381.571c0,0,35.938,26.562,42.188,26.562s15.436,10.938,14.844,15.625
		c-0.219,1.733,0.781,4.688-11.719,5.469s-30.469-3.125-33.594-5.469s-7.031-11.719-11.719-14.062s-10.156-4.688-15.625-10.156
		s-5.469-6.25-9.375-17.188s-35.239-28.906-43.791-43.75c-8.553-14.844-19.49-21.094-19.49-38.281
		c0-8.594-22.509-7.305-32.412-7.812c-15.244-0.781-58.369-17.969-60.244-17.969s13.384-35.586,31.926-38.496
		c18.543-2.91,62.194,20.286,69.324,21.309c10.896,1.562,14.703,14.814,17.952,18.95c22.774,28.988,39.552,72.242,50.798,91.987
		L899.125,381.571z"/>
	<path id="r-leg-light_2_" style="fill:#FFDCA9;" d="M829.334,276.302c-8.594,0-5.681-15.317-15.584-15.825
		c-15.244-0.781-75.857-9.447-81.25-10.938c-11.504-3.179-1.929-10.586,16.613-13.496c18.547-2.91,62.188,20.286,69.324,21.309
		c10.896,1.562,14.703,14.814,17.952,18.95C859.164,305.291,836.39,276.302,829.334,276.302z"/>
</g>
<g id="upperbody">
	<path id="upper" style="fill:#FFBD6A;" d="M644.438,79.227c6.25,2.344,14.844,2.344,19.531,0s17.881-6.599,24.363-3.188
		c6.333,3.333,5.242,8.578,7.668,19.594c1.998,9.073,12.332,15.74,8.594,20.075c-12.3,14.265-6.596,8.332-40.317,31.12
		c-33.364,22.547-25.946,14.2-29.278,19.118s-10.092,0-10.092,0l-7.574-6.906l-3.334,3.333c3-0.667-6.666,7.851-8.333,5.759
		s-0.667,4.241-3.333,3.908c-2.667-0.333-6.334,1.025-7.334,0.013s-2-2.013-4.333-2.013s-6.667,0.358-7-2.654
		s0.333-10.491-7.667-15.251s-8.254-16.705-2.666-16.761c8.635-0.086,7.037-0.086,7.037-0.086c0-3.667,0.296-13.244,9.963-19.579
		c9.666-6.335,22.666-4.002,22.333-12.668s0.667-15.667-6.333-30s-7.535-10.854-10.334-30.333c-1.25-8.695-4-6.333,1-18
		c4.195-9.79,8.667-14,20.334-15c11.666-1,19.333,8.333,21.333,11s4.666,9.333,5.333,13.667s2.666,19,0,24s0.257,20.979,2.43,21.494
		"/>
</g>
<g id="bikini">
	<path id="b-outline" style="fill:#FFD110;" d="M767.875,174.54c22.656,14.844,42.969,44.531,42.969,44.531
		s-32.962,19.143-28.274,23.049s-24.906-10.658-35.788-5.08c-28.956,14.844-25.781,44.276-32.812,38.528
		c-39.49-32.283-25.781-54.153-28.906-67.435c-1.027-4.366-23.438-10.938-23.438-10.938s-11.719-2.344-16.406-7.031
		s-21.975-22.656-20.412-25c12.5-18.75,32.473-12.988,39.47-18.337c11.56-8.836,37.192-38.694,43.442-29.319
		c8.916,13.375,17.188,29.688,22.656,38.281S756.938,161.258,767.875,174.54z"/>
	<g id="b-shadow">
		<path style="fill:#BA9324;" d="M783.605,243.508c0,0-6.48-3.906-8.824-3.906c0.869,0,11.863-4.997,13.281-5.469
			C790.406,233.352,780.293,243.548,783.605,243.508z"/>
		<path style="fill:#BA9324;" d="M716.312,274.54c0,0-1.686-30.429,7.689-31.991s-27.221,3.866-25.658,4.647
			s-2.093-10.156,9.891-9.375c11.984,0.781-16.572-5.913-18.222-12.948c-0.624-2.66-2.846-6.583,11.337-7.364
			c14.182-0.781-28.787-4.688-9.256-6.25s-12.5-3.906-1.562-4.688s0-3.906,14.844-11.719s-35.125,5.792-19.473-0.424
			c16.927-6.722-13.416-3.233-19.59-2.213c-5.838,0.964-14.85-0.2-9.059-3.316c8.804-4.737,20.182-14.605,14.289-13.688
			c-5.891,0.917-21.938,2.418-21.938-5.172c0-3.906-34.355-1.5-1.262-17.375c2.486-1.192-26.427,13.08-22.094,13.281
			c1.892,5.415,7.507,9.614,19.5,22.954c5.168,5.84,27.102,7.947,37.75,18.453c4.5,4.439-2.498,29.439,11.719,45.312
			c7.841,8.754,7.031,19.531,17.188,21.875"/>
	</g>
</g>
<g id="face-shadows">
	<g id="Layer_10">
		<path id="upper-shadow_2_" style="fill:#E58757;" d="M617.332,159.04l7.574,6.906c0,0,6.565-9.89,29.816-16.274
			c7.205-10.952,24.003-28.62,33.277-33.964v-4.334c0,0-4.479,3.312-7.166,6c-30.668,30.667-32.167,23.667-38.368,31.781
			C638.273,154.64,621.33,159.039,617.332,159.04z"/>
		<path style="fill:#E58757;" d="M604.667,145.707c0,0,16.079-0.333,20.04,2c3.96,2.333,7.843,3.886,12.801,2.667
			s-18.178,9.333-20.176,7.333S612,151.894,610,152.134S604.667,145.707,604.667,145.707z"/>
		<path style="fill:#E58757;" d="M613.667,144.707c0,0-9-11.584,16.667-18.667c8.651-2.387-41.334,10.985-40.334,11.826
			s6.333-0.254,9,0.793S604.667,145.707,613.667,144.707z"/>
		<path style="fill:#E58757;" d="M635.668,125.755c0,0,25.335-27.381,27.167-31.715s0,0-4.168,0
			C657.922,94.041,662.835,94.041,635.668,125.755z"/>
		<path style="fill:#E58757;" d="M634.832,77.04c0,0-5.166,5.667-12.496,11.667c-2.145,1.756,13,24.333,8.499,22.333
			s-2.499,1.667,0,7.333s-14.168-1-16.501,0c-2.334,1-10-2.667-12.334,0s-12,5.333-12,5.333s19-10.666,21.666-16.333
			c2.668-5.667-0.756-27.11-6.666-33.272c-5.334-5.562-8.666-19.895-8.75-24.478C590,35.29,600.334,14.957,603,20.29
			c0.559,1.117,2.127,8.203-0.303,10.146c-3.852,3.08-4.605,10.935-3.78,12.688c2,4.25,4.583-2.084,7.583,22.916
			c5.916,11.75,8.873,10.997,10.832,10.667C617.332,79.04,627.287,83.26,634.832,77.04z"/>
		<path style="fill:#E58757;" d="M614.5,35.54c0,0,2.011,7.761,0.769,14.834c-0.769,4.376,0.355,3.44,2.063,4
			c2.793,0.916-0.918-4.455,1.637-6.333C620.5,46.915,614.5,35.54,614.5,35.54z"/>
		<path style="fill:#E58757;" d="M624,51.04v2h3C627,53.04,623.875,51.915,624,51.04z"/>
	</g>
</g>
<g id="hat">
	<path style="fill:#FFD110;" d="M605,74.102c0,0-38.332-51.062,2.332-72.062c12.323-6.364,31.127,3.242,36.668,14
		c1.96,3.805,14.001,30,9.594,41c-4.209,10.504-11.531,3.02-11.594,6s14.765-56.018-27.117-49.509
		C573,20.04,610.668,76.326,605,74.102z"/>
</g>
<g id="sunglasses">
	<g id="lines_copy">
		<path style="fill:#471604;" d="M621,207.618c3-3.578,6.538-6.762,10.604-7.045s13.236-0.306,14.983-0.169
			s-0.042-1.542-0.042-1.542s-13.709,0.102-15.781,0.515c-2.074,0.414-9.764,2.65-9.764,5.446C621,207.618,621,207.618,621,207.618z
			"/>
		<path id="outline_2_" style="fill:#F7F6F5;" d="M604.691,171.269c-0.024,6.75,0.734,7.093,5.975,13.76
			c4.328,5.507-3.438,15.744,5.599,22.14c5.089,3.603,18.542-4.102,13.694-11.144c-5.04-7.321-4.439-7.027-12.629-8.612
			c-7.468-1.445,9.736-8.712,3.115-17.869C614.291,161.034,604.699,169.152,604.691,171.269z"/>
		<path style="fill:#471604;" d="M611,158.617c3-3.578,6.538-6.761,10.604-7.044s13.236-0.306,14.983-0.169
			s-0.042-1.542-0.042-1.542s-13.709,0.102-15.781,0.515c-2.074,0.414-9.764,2.65-9.764,5.446S611,158.617,611,158.617z"/>
		<path d="M612.416,183.29c0,0-6.914-7.614-5.666-10.855c1.5-3.895,4.477-7.395,11.238-3.895S616.582,184.04,612.416,183.29z"/>
		<path d="M614.75,189.29c-2.386,0.747-2.671,13.915,3.091,14.915c5.762,0.999,9.206-2.888,9.909-4.165
			C629.973,196.005,622.336,186.914,614.75,189.29z"/>
		<path style="fill:#FCFCFC;" d="M615.273,198.939c0.005,1.074,7.809-5.095,5.371-5.467
			C614.092,192.472,615.259,196.005,615.273,198.939z"/>
		<path style="fill:#FFFFFF;" d="M612.416,175.211c-1.393,2.698-0.834,3.828,0,4.078s2.828-4.913,5.425-5.268
			C622.016,173.452,613.328,173.444,612.416,175.211z"/>
	</g>
</g>
<g id="flower">
	<ellipse style="fill:#FFFFFF;" cx="774.032" cy="193.822" rx="1.104" ry="3.827"/>
	<ellipse style="fill:#FFFFFF;" cx="774.032" cy="187.199" rx="1.104" ry="3.827"/>
	
		<ellipse transform="matrix(0.7026 -0.7116 0.7116 0.7026 95.6894 604.6577)" style="fill:#FFFFFF;" cx="771.162" cy="187.861" rx="1.104" ry="3.826"/>
	
		<ellipse transform="matrix(0.023 -0.9997 0.9997 0.023 562.3165 956.4241)" style="fill:#FFFFFF;" cx="770.5" cy="190.51" rx="1.104" ry="3.827"/>
	
		<ellipse transform="matrix(0.7391 0.6736 -0.6736 0.7391 331.1129 -469.8376)" style="fill:#FFFFFF;" cx="772.045" cy="192.498" rx="1.104" ry="3.827"/>
	<ellipse style="fill:#FFFFFF;" cx="777.564" cy="190.51" rx="3.827" ry="1.104"/>
	
		<ellipse transform="matrix(0.8068 0.5908 -0.5908 0.8068 261.174 -422.2001)" style="fill:#FFFFFF;" cx="776.24" cy="188.302" rx="1.104" ry="3.828"/>
	
		<ellipse transform="matrix(0.5926 -0.8055 0.8055 0.5926 161.0206 704.233)" style="fill:#FFFFFF;" cx="776.682" cy="192.939" rx="1.104" ry="3.827"/>
	<circle style="fill:#FFBC00;" cx="773.982" cy="190.708" r="2.331"/>
</g>
<g id="flower">
	<ellipse style="fill:#FFFFFF;" cx="740.032" cy="206.823" rx="1.104" ry="3.826"/>
	<ellipse style="fill:#FFFFFF;" cx="740.032" cy="200.199" rx="1.104" ry="3.827"/>
	
		<ellipse transform="matrix(0.7026 -0.7116 0.7116 0.7026 76.3252 584.3291)" style="fill:#FFFFFF;" cx="737.162" cy="200.861" rx="1.104" ry="3.826"/>
	
		<ellipse transform="matrix(0.023 -0.9997 0.9997 0.023 516.1021 935.134)" style="fill:#FFFFFF;" cx="736.5" cy="203.51" rx="1.104" ry="3.827"/>
	
		<ellipse transform="matrix(0.7393 0.6734 -0.6734 0.7393 330.7865 -443.4095)" style="fill:#FFFFFF;" cx="738.045" cy="205.498" rx="1.104" ry="3.827"/>
	<ellipse style="fill:#FFFFFF;" cx="743.564" cy="203.51" rx="3.827" ry="1.104"/>
	
		<ellipse transform="matrix(0.8068 0.5908 -0.5908 0.8068 262.2867 -399.6033)" style="fill:#FFFFFF;" cx="742.24" cy="201.302" rx="1.104" ry="3.828"/>
	
		<ellipse transform="matrix(0.5925 -0.8056 0.8056 0.5925 136.7593 682.2214)" style="fill:#FFFFFF;" cx="742.682" cy="205.939" rx="1.104" ry="3.827"/>
	<circle style="fill:#FFBC00;" cx="739.982" cy="203.708" r="2.331"/>
</g>
<g id="flower">
	<ellipse style="fill:#FFFFFF;" cx="679.032" cy="186.823" rx="1.104" ry="3.826"/>
	<ellipse style="fill:#FFFFFF;" cx="679.032" cy="180.199" rx="1.104" ry="3.827"/>
	
		<ellipse transform="matrix(0.7024 -0.7117 0.7117 0.7024 72.4686 535.0649)" style="fill:#FFFFFF;" cx="676.162" cy="180.861" rx="1.104" ry="3.826"/>
	
		<ellipse transform="matrix(0.023 -0.9997 0.9997 0.023 476.4999 854.6103)" style="fill:#FFFFFF;" cx="675.5" cy="183.51" rx="1.104" ry="3.827"/>
	
		<ellipse transform="matrix(0.7393 0.6734 -0.6734 0.7393 301.4162 -407.5475)" style="fill:#FFFFFF;" cx="677.045" cy="185.498" rx="1.104" ry="3.827"/>
	<ellipse style="fill:#FFFFFF;" cx="682.564" cy="183.51" rx="3.827" ry="1.104"/>
	
		<ellipse transform="matrix(0.807 0.5906 -0.5906 0.807 238.5914 -367.3511)" style="fill:#FFFFFF;" cx="681.24" cy="181.303" rx="1.104" ry="3.827"/>
	
		<ellipse transform="matrix(0.5925 -0.8056 0.8056 0.5925 128.012 624.9299)" style="fill:#FFFFFF;" cx="681.682" cy="185.939" rx="1.104" ry="3.827"/>
	<circle style="fill:#FFBC00;" cx="678.982" cy="183.708" r="2.331"/>
</g>
<g id="flower">
	<ellipse style="fill:#FFFFFF;" cx="775.032" cy="224.823" rx="1.104" ry="3.826"/>
	<ellipse style="fill:#FFFFFF;" cx="775.032" cy="218.199" rx="1.104" ry="3.827"/>
	
		<ellipse transform="matrix(0.7024 -0.7117 0.7117 0.7024 73.9877 614.6986)" style="fill:#FFFFFF;" cx="772.162" cy="218.861" rx="1.104" ry="3.826"/>
	
		<ellipse transform="matrix(0.023 -0.9997 0.9997 0.023 532.3017 987.7108)" style="fill:#FFFFFF;" cx="771.5" cy="221.51" rx="1.104" ry="3.827"/>
	
		<ellipse transform="matrix(0.7393 0.6734 -0.6734 0.7393 352.0318 -462.2852)" style="fill:#FFFFFF;" cx="773.045" cy="223.498" rx="1.104" ry="3.827"/>
	<ellipse style="fill:#FFFFFF;" cx="778.564" cy="221.51" rx="3.827" ry="1.104"/>
	
		<ellipse transform="matrix(0.807 0.5906 -0.5906 0.807 279.5673 -416.7144)" style="fill:#FFFFFF;" cx="777.24" cy="219.303" rx="1.104" ry="3.827"/>
	
		<ellipse transform="matrix(0.5925 -0.8056 0.8056 0.5925 136.5221 717.7524)" style="fill:#FFFFFF;" cx="777.682" cy="223.939" rx="1.104" ry="3.827"/>
	<circle style="fill:#FFBC00;" cx="774.982" cy="221.708" r="2.331"/>
</g>
<g id="flower">
	<ellipse style="fill:#FFFFFF;" cx="713.032" cy="221.823" rx="1.104" ry="3.826"/>
	<ellipse style="fill:#FFFFFF;" cx="713.032" cy="215.199" rx="1.104" ry="3.827"/>
	
		<ellipse transform="matrix(0.7024 -0.7117 0.7117 0.7024 57.6746 569.6783)" style="fill:#FFFFFF;" cx="710.162" cy="215.861" rx="1.104" ry="3.826"/>
	
		<ellipse transform="matrix(0.023 -0.9997 0.9997 0.023 474.7271 922.7961)" style="fill:#FFFFFF;" cx="709.5" cy="218.51" rx="1.104" ry="3.827"/>
	
		<ellipse transform="matrix(0.7393 0.6734 -0.6734 0.7393 333.8482 -421.3178)" style="fill:#FFFFFF;" cx="711.045" cy="220.498" rx="1.104" ry="3.827"/>
	<ellipse style="fill:#FFFFFF;" cx="716.564" cy="218.51" rx="3.827" ry="1.104"/>
	
		<ellipse transform="matrix(0.807 0.5906 -0.5906 0.807 265.8265 -380.6754)" style="fill:#FFFFFF;" cx="715.24" cy="216.303" rx="1.104" ry="3.827"/>
	
		<ellipse transform="matrix(0.5925 -0.8056 0.8056 0.5925 113.6722 666.5834)" style="fill:#FFFFFF;" cx="715.682" cy="220.939" rx="1.104" ry="3.827"/>
	<circle style="fill:#FFBC00;" cx="712.982" cy="218.708" r="2.331"/>
</g>
<g id="flower">
	<ellipse style="fill:#FFFFFF;" cx="738.032" cy="179.822" rx="1.104" ry="3.827"/>
	<ellipse style="fill:#FFFFFF;" cx="738.032" cy="173.199" rx="1.104" ry="3.827"/>
	
		<ellipse transform="matrix(0.7026 -0.7116 0.7116 0.7026 94.9443 574.8749)" style="fill:#FFFFFF;" cx="735.162" cy="173.861" rx="1.104" ry="3.826"/>
	
		<ellipse transform="matrix(0.023 -0.9997 0.9997 0.023 541.1409 906.7557)" style="fill:#FFFFFF;" cx="734.5" cy="176.51" rx="1.104" ry="3.827"/>
	
		<ellipse transform="matrix(0.7391 0.6736 -0.6736 0.7391 312.2891 -449.2403)" style="fill:#FFFFFF;" cx="736.045" cy="178.498" rx="1.104" ry="3.827"/>
	<ellipse style="fill:#FFFFFF;" cx="741.564" cy="176.51" rx="3.827" ry="1.104"/>
	
		<ellipse transform="matrix(0.8068 0.5908 -0.5908 0.8068 245.9499 -403.637)" style="fill:#FFFFFF;" cx="740.24" cy="174.302" rx="1.104" ry="3.828"/>
	
		<ellipse transform="matrix(0.5926 -0.8055 0.8055 0.5926 157.6307 669.5309)" style="fill:#FFFFFF;" cx="740.682" cy="178.939" rx="1.104" ry="3.827"/>
	<circle style="fill:#FFBC00;" cx="737.982" cy="176.708" r="2.331"/>
</g>
<g id="flower">
	<ellipse style="fill:#FFFFFF;" cx="717.032" cy="196.822" rx="1.104" ry="3.827"/>
	<ellipse style="fill:#FFFFFF;" cx="717.032" cy="190.199" rx="1.104" ry="3.827"/>
	
		<ellipse transform="matrix(0.7026 -0.7116 0.7116 0.7026 76.6003 564.9872)" style="fill:#FFFFFF;" cx="714.162" cy="190.861" rx="1.104" ry="3.826"/>
	
		<ellipse transform="matrix(0.023 -0.9997 0.9997 0.023 503.6284 902.3702)" style="fill:#FFFFFF;" cx="713.5" cy="193.51" rx="1.104" ry="3.827"/>
	
		<ellipse transform="matrix(0.7391 0.6736 -0.6736 0.7391 318.2613 -430.6586)" style="fill:#FFFFFF;" cx="715.045" cy="195.498" rx="1.104" ry="3.827"/>
	<ellipse style="fill:#FFFFFF;" cx="720.564" cy="193.51" rx="3.827" ry="1.104"/>
	
		<ellipse transform="matrix(0.8068 0.5908 -0.5908 0.8068 251.9366 -387.9474)" style="fill:#FFFFFF;" cx="719.24" cy="191.302" rx="1.104" ry="3.828"/>
	
		<ellipse transform="matrix(0.5926 -0.8055 0.8055 0.5926 135.3812 659.5412)" style="fill:#FFFFFF;" cx="719.682" cy="195.939" rx="1.104" ry="3.827"/>
	<circle style="fill:#FFBC00;" cx="716.982" cy="193.708" r="2.331"/>
</g>
<g id="flower">
	<ellipse style="fill:#FFFFFF;" cx="731.032" cy="231.823" rx="1.104" ry="3.826"/>
	<ellipse style="fill:#FFFFFF;" cx="731.032" cy="225.199" rx="1.104" ry="3.827"/>
	
		<ellipse transform="matrix(0.7024 -0.7117 0.7117 0.7024 55.9132 585.4651)" style="fill:#FFFFFF;" cx="728.162" cy="225.861" rx="1.104" ry="3.826"/>
	
		<ellipse transform="matrix(0.023 -0.9997 0.9997 0.023 482.3157 950.5613)" style="fill:#FFFFFF;" cx="727.5" cy="228.51" rx="1.104" ry="3.827"/>
	
		<ellipse transform="matrix(0.7393 0.6734 -0.6734 0.7393 345.2746 -430.8316)" style="fill:#FFFFFF;" cx="729.045" cy="230.498" rx="1.104" ry="3.827"/>
	<ellipse style="fill:#FFFFFF;" cx="734.564" cy="228.51" rx="3.827" ry="1.104"/>
	
		<ellipse transform="matrix(0.807 0.5906 -0.5906 0.807 275.2076 -389.3759)" style="fill:#FFFFFF;" cx="733.24" cy="226.303" rx="1.104" ry="3.827"/>
	
		<ellipse transform="matrix(0.5925 -0.8056 0.8056 0.5925 112.9518 685.1592)" style="fill:#FFFFFF;" cx="733.682" cy="230.939" rx="1.104" ry="3.827"/>
	<circle style="fill:#FFBC00;" cx="730.982" cy="228.708" r="2.331"/>
</g>
<g id="flower">
	<ellipse style="fill:#FFFFFF;" cx="713.032" cy="160.822" rx="1.104" ry="3.827"/>
	<ellipse style="fill:#FFFFFF;" cx="713.032" cy="154.199" rx="1.104" ry="3.827"/>
	
		<ellipse transform="matrix(0.7026 -0.7116 0.7116 0.7026 101.0291 551.4329)" style="fill:#FFFFFF;" cx="710.162" cy="154.861" rx="1.104" ry="3.826"/>
	
		<ellipse transform="matrix(0.023 -0.9997 0.9997 0.023 535.7109 863.1993)" style="fill:#FFFFFF;" cx="709.5" cy="157.51" rx="1.104" ry="3.827"/>
	
		<ellipse transform="matrix(0.7391 0.6736 -0.6736 0.7391 292.9673 -437.3573)" style="fill:#FFFFFF;" cx="711.045" cy="159.498" rx="1.104" ry="3.827"/>
	<ellipse style="fill:#FFFFFF;" cx="716.564" cy="157.51" rx="3.827" ry="1.104"/>
	
		<ellipse transform="matrix(0.8068 0.5908 -0.5908 0.8068 229.8967 -392.5378)" style="fill:#FFFFFF;" cx="715.24" cy="155.302" rx="1.104" ry="3.828"/>
	
		<ellipse transform="matrix(0.5926 -0.8055 0.8055 0.5926 162.7499 641.652)" style="fill:#FFFFFF;" cx="715.682" cy="159.939" rx="1.104" ry="3.827"/>
	<circle style="fill:#FFBC00;" cx="712.982" cy="157.708" r="2.331"/>
</g>
<g id="flower">
	<ellipse style="fill:#FFFFFF;" cx="681.032" cy="155.822" rx="1.104" ry="3.827"/>
	<ellipse style="fill:#FFFFFF;" cx="681.032" cy="149.199" rx="1.104" ry="3.827"/>
	
		<ellipse transform="matrix(0.7026 -0.7116 0.7116 0.7026 95.0691 527.1736)" style="fill:#FFFFFF;" cx="678.162" cy="149.861" rx="1.104" ry="3.826"/>
	
		<ellipse transform="matrix(0.023 -0.9997 0.9997 0.023 509.4457 826.3228)" style="fill:#FFFFFF;" cx="677.5" cy="152.51" rx="1.104" ry="3.827"/>
	
		<ellipse transform="matrix(0.7391 0.6736 -0.6736 0.7391 281.2498 -417.1061)" style="fill:#FFFFFF;" cx="679.045" cy="154.498" rx="1.104" ry="3.827"/>
	<ellipse style="fill:#FFFFFF;" cx="684.564" cy="152.51" rx="3.827" ry="1.104"/>
	
		<ellipse transform="matrix(0.8068 0.5908 -0.5908 0.8068 220.762 -374.5993)" style="fill:#FFFFFF;" cx="683.24" cy="150.302" rx="1.104" ry="3.828"/>
	
		<ellipse transform="matrix(0.5926 -0.8055 0.8055 0.5926 153.7401 613.8386)" style="fill:#FFFFFF;" cx="683.682" cy="154.939" rx="1.104" ry="3.827"/>
	<circle style="fill:#FFBC00;" cx="680.982" cy="152.708" r="2.331"/>
</g>
<g id="flower">
	<ellipse style="fill:#FFFFFF;" cx="652.032" cy="166.822" rx="1.104" ry="3.827"/>
	<ellipse style="fill:#FFFFFF;" cx="652.032" cy="160.199" rx="1.104" ry="3.827"/>
	
		<ellipse transform="matrix(0.7026 -0.7116 0.7116 0.7026 78.6154 509.8082)" style="fill:#FFFFFF;" cx="649.162" cy="160.861" rx="1.104" ry="3.826"/>
	
		<ellipse transform="matrix(0.023 -0.9997 0.9997 0.023 470.1157 808.0775)" style="fill:#FFFFFF;" cx="648.5" cy="163.51" rx="1.104" ry="3.827"/>
	
		<ellipse transform="matrix(0.7391 0.6736 -0.6736 0.7391 281.0928 -394.701)" style="fill:#FFFFFF;" cx="650.045" cy="165.498" rx="1.104" ry="3.827"/>
	<ellipse style="fill:#FFFFFF;" cx="655.564" cy="163.51" rx="3.827" ry="1.104"/>
	
		<ellipse transform="matrix(0.8068 0.5908 -0.5908 0.8068 221.6589 -355.3427)" style="fill:#FFFFFF;" cx="654.24" cy="161.302" rx="1.104" ry="3.828"/>
	
		<ellipse transform="matrix(0.5926 -0.8055 0.8055 0.5926 133.0642 594.9604)" style="fill:#FFFFFF;" cx="654.682" cy="165.939" rx="1.104" ry="3.827"/>
	<circle style="fill:#FFBC00;" cx="651.982" cy="163.708" r="2.331"/>
</g>
<g id="flower">
	<ellipse style="fill:#FFFFFF;" cx="702.032" cy="133.822" rx="1.104" ry="3.827"/>
	<ellipse style="fill:#FFFFFF;" cx="702.032" cy="127.199" rx="1.104" ry="3.827"/>
	
		<ellipse transform="matrix(0.7026 -0.7116 0.7116 0.7026 116.9712 535.574)" style="fill:#FFFFFF;" cx="699.162" cy="127.861" rx="1.104" ry="3.826"/>
	
		<ellipse transform="matrix(0.023 -0.9997 0.9997 0.023 551.9568 825.8234)" style="fill:#FFFFFF;" cx="698.5" cy="130.51" rx="1.104" ry="3.827"/>
	
		<ellipse transform="matrix(0.7391 0.6736 -0.6736 0.7391 271.9095 -436.9924)" style="fill:#FFFFFF;" cx="700.045" cy="132.498" rx="1.104" ry="3.827"/>
	<ellipse style="fill:#FFFFFF;" cx="705.564" cy="130.51" rx="3.827" ry="1.104"/>
	
		<ellipse transform="matrix(0.8068 0.5908 -0.5908 0.8068 211.8215 -391.2546)" style="fill:#FFFFFF;" cx="704.24" cy="128.302" rx="1.104" ry="3.828"/>
	
		<ellipse transform="matrix(0.5926 -0.8055 0.8055 0.5926 180.0171 621.7911)" style="fill:#FFFFFF;" cx="704.682" cy="132.939" rx="1.104" ry="3.827"/>
	<circle style="fill:#FFBC00;" cx="701.982" cy="130.708" r="2.331"/>
</g>

</svg>

