<?xml version="1.0" encoding="iso-8859-1"?>
<!-- Generator: Adobe Illustrator 16.0.0, SVG Export Plug-In . SVG Version: 6.00 Build 0)  -->
<!DOCTYPE svg PUBLIC "-//W3C//DTD SVG 1.1//EN" "http://www.w3.org/Graphics/SVG/1.1/DTD/svg11.dtd">
<svg version="1.1" id="body" 
	 viewBox="0 0 553.445 791.724" style="enable-background:new 0 0 553.445 791.724;"
	 xml:space="preserve">
<g id="body_5_">
	<path id="arm_1_" style="fill:#EABF86;" d="M107.136,567.168c-3.333,3.333-25.556-17.778-25.556-17.778
		s-7.777-16.666-16.667-22.222s-8.89-26.429-16.667-47.104s75.556-131.786,88.889-142.897s82.222-26.667,101.111-37.778
		s64.111-23.389,52.024-11.344c-7.173,7.148-5.072,42.015-22.024,55.789c-17.777,14.444-90.504,10.424-93.333,17.778
		s-93.333,93.879-100,106.939s2.222,10.839-1.111,24.172c0.634,7.611,13.556,10.777,5.645,25.18
		C74.209,523.759,107.136,567.168,107.136,567.168z"/>
	<path id="legs" style="fill:#EABF86;" d="M268.247,644.946c0,26.667,27.777,139.556,50,144.556s85.556,0,85.556,0
		s32.056-112.25,41.111-112.333c10.444-10.667-8.888-12.222-13.333-10s-73.773-10.667-93.334-8.89
		c-3.954,0.359,3.621-7.058,1.111-13.333C334.782,633.501,268.247,644.946,268.247,644.946z"/>
	<path id="shadow-leg" style="fill:#D88A50;" d="M333.858,641.001c-4,5.519-4.257,101.685-3.75,98.813
		c1.5-8.5,5.344-34.819,7-52.806c1.75-19.008-2.705-20.264,2.272-28.886s8.478-21.122,6.978-21.622S333.858,641.001,333.858,641.001
		z"/>
	<path id="head" style="fill:#EABF86;" d="M358.233,242.876c0.479-7.489,1.812-18.812,1.312-23.062s-1.469-30.531-4.969-32.031
		s-6.234-32.016-37.234-36.766s-37.492,0.742-39.492,2.242s-32.246,22.746-25.246,46.496c3.254,17.746,4.486,17.655,12.254,26.401
		c5.502,15.026,15.545,23.053,27.436,29.512c8.897,4.833,14.655,21.833,14.655,21.833l-3.591,1c0,0-20,15.25-13.5,26.5
		s-3.817,45.5,17.091,44.5s56.035-34.11,88.409-75.979c4.355-5.632,1.5-6.776-1.25-8.648S357.79,249.807,358.233,242.876z"/>
	<path id="suit" style="fill:#2B2928;" d="M438.247,480.065c2.861-2.563,3.505-13.152,4.611-26.063
		c1.5-17.5,8.057-41.816,9.833-49.056c3.619-14.745,3.342-59.864,1.917-74.694c-1.583-16.472-15.648-27.545-37.473-57.528
		c-2.527-3.472-19.027-8.51-21.111-7.778c-20.877,7.334-55.667,77.806-80,77.778c-12.261-0.014-24.167-7.222-21.111-33.333
		c0.449-3.84-1.58-5.688-0.246-12.222c0.75-3.671,6.275-21.208,12.172-20.096s-12.333-0.848-16.482,6.93s-26.473,43.028-24.25,65.25
		c-0.721,20.879-14.75,1,2.139,61.583c24.047,19.334,13.111,22.667,12.611,69.167c-8.465,20.148-25.699,161.949-12.611,164.944
		c6.636,1.519,54.26-5.785,65.611-3.944c9.25,1.5-1,16,5.522,17.122c16.5,0.5,87.673,10.462,92.2,9.045s10.598,4.378,15.607,8.561
		c3.92,3.272,13.101-27.046,16.614-43.005c2.306-10.473,7.306-120.223-24.444-133.334
		C435.835,497.935,435.385,482.628,438.247,480.065z"/>
	<path id="belt" style="fill:#7AAEDD;" d="M280.294,491.501c0,0-2.936-20,4.064-16s63.164,7.922,78.582,5.461
		s59.137-1.395,77.277-4.928c4.816-0.435-4.525,18.801,3.15,24.467c-43.76-2.75-45.511,1.083-48.767,1
		c-6.993,2.75-46.741,6.109-64.686,3C306.949,503.208,280.294,491.501,280.294,491.501z"/>
</g>
<g id="face">
	<path style="fill:#DBA361;" d="M344.024,307.168c0.668,3.5-30.265-9.858-32.632-11.929s0.813-13.992-10.444-30.365
		c-6.84-10.128-22.34-12.123-33.552-32.873c-5.87-6.333-9.092-13.543-9.092-13.543s2.782-19.286,18.418-23.955
		s-5.364,10.018-4.364,11.674s-4.049,12.808,0.5,12.624c8.5-0.344,1.667,10.386,6.834,17.042s27.001,27.402,37.334,29.029
		c10.001,5.127,9.32,7.96,18.05,3.627c1.617-1.167,4.451,5.021,0,5.021C319.354,273.522,325.179,273.522,344.024,307.168z"/>
	<path style="fill:#DBA15D;" d="M302.858,201.075c3.826,5.722,9.332,20.55,6.999,21.927c-4.448,2.625,1.536,9,1.536,9
		c-6.536-0.666-8.966-16.932-8.534-20.453c1.07-8.717-6.662-9.38-6.385-10.474C297.666,196.369,300.023,196.835,302.858,201.075z"/>
	<path style="fill:#899FC6;" d="M348.858,183.168c-3.5-6-10.859-17.667-26.68-10.5s-22.845,15.541-24.153,16.508
		c-1.562,1.155-6.833-4.008-23.833,7.158c-3.833,4-14.833,8.662-15,22.124c-12.52-8.79-14.833-23.84-14.833-46.889
		c0-15.758,7.197-33.668,22.593-43.068c2.167-1.323,1.015-2.281,3.843-3.271c3.064-1.071,5.481-0.133,5.481-0.133
		s33.75-7.097,58.257,17.737c22.693,22.995,23.491,45.375,23.491,45.375S350.957,186.768,348.858,183.168z"/>
	<path style="fill:#5C7799;" d="M293.06,188.209c-12.229,4.25-29.059,7.404-34.755,29.598c-2.614,14.194-46.447-61.996,9.692-90.157
		C260.33,160.835,293.06,188.209,293.06,188.209z"/>
	<path style="fill:#DD9E6F;" d="M327.941,246.751c-8.708,0.5-9.271,4.312-12.583,4.25c-0.848-0.016-2.447-1.413-1.688-1.188
		c4,1.188,6.588-8.642,8.194-9.495c2.292-0.24,3.713,0.432,3.713,0.432s0.947-2.417,2.197-2.667
		c0.967-0.193,9.278,2.045,10.583-0.646c0.467-0.963,0.238,0.562-0.733,2.219C336.62,241.374,332.233,240.751,327.941,246.751z"/>
	<path style="fill:#DBA361;" d="M325.104,253.663c1.585-0.383,8.313-2.183,9.563-4.34s-0.559,4.429-2.809,5.179
		S323.401,254.074,325.104,253.663z"/>
</g>
<g id="duck">
	<path id="body_3_" style="fill:#FFF200;" d="M185.353,198.905c57.222,0,149.192,29.636,97.874,189.846
		c36.613,46.525,46.529,41.652,39.863,103.367c-6.667,61.717-87.93,92.573-126.938,89.326
		c-39.007-3.248-124.213-5.731-136.599-108.818c21.054-78.82,48.367-71.445,42.984-88.196
		C82.774,322.928,59.553,227.42,185.353,198.905z"/>
	<path id="r-eye" d="M261.043,289.129c16.986,0.403,17.967,34.761,2.136,40.66C247.049,335.801,233.649,288.479,261.043,289.129z"/>
	<path id="mouth" style="fill:#F79800;" d="M184.746,334.729c17.32,0,18.552,6.486,58.758,27.667
		c12.618,6.646-20.928,29.66-57.966,30.586c-20.265,0.507-67.19-24.277-56.863-31.764
		C173.06,329.041,169.416,334.729,184.746,334.729z"/>
	<path id="l-eye" d="M117.583,292.179c14.388-1.811,19.963,31.601,1.236,37.662C100.359,335.815,108.65,293.303,117.583,292.179z"/>
	<ellipse id="r-eye-white" style="fill:#FFFFFF;" cx="258.071" cy="307.19" rx="4.144" ry="6.215"/>
	
		<ellipse id="l-eye-white" transform="matrix(0.9994 0.0359 -0.0359 0.9994 11.2055 -4.051)" style="fill:#FFFFFF;" cx="118.474" cy="310.191" rx="2.606" ry="6.215"/>
</g>
<g id="zebra" style="display:none;">
	<ellipse id="top-4" style="display:inline;fill:#0FECF2;" cx="220.858" cy="71.657" rx="23.5" ry="26.155"/>
	<ellipse id="top-3" style="display:inline;fill:#07EF13;" cx="218.069" cy="59.457" rx="22.711" ry="30.045"/>
	<path id="body_2_" style="display:inline;fill:#F7F2ED;" d="M142.858,228.001c-11,99-167.5,350.5,35.977,369.418
		c154.096,14.327,132.557-110.918,132.523-129.995c1.274-30.923-33.211-66.531-45.25-121.173
		c-12.57-57.05-10.25-128.75-10.25-128.75s17.565-83.883-1.238-97.383c8.775-13.5,22.627-50.617,13.627-68.617
		c-1.552-3.104-18.889,1.5-22.889,50c-1.014,12.29-3.739-29.737-34-37c-12.5-3-22.241,11.268-23,9
		c-4.773-14.255,5.229-39.966-1.771-36.966c-10.829,4.641-22.229,26.466-22.229,59.466c0,24.766-24,24.5-26.495,64.892
		C136.701,179.707,144.883,209.776,142.858,228.001z"/>
	<g id="nose_2_" style="display:inline;">
		<path id="nose_1_" style="fill:#443F3B;" d="M172.108,246.322c4.009-6.488,19.04-22.417,26.117-14.071
			c6.383,7.528,3.272,24.208-2.741,35.25c-6.126,11.25-16.812,29-25.469,27.667s-14.492-14.75-17.324-21.333
			s-7.516-40.352,0.663-46.333C163.608,220.001,172.108,246.322,172.108,246.322z"/>
		<path id="nose-detail_1_" d="M192.646,239.834c-5.622,1.333-7.788,19.917-4.538,26.704
			C194.903,261.874,198.267,238.501,192.646,239.834z"/>
		<path id="nose-detail" d="M153.357,266.501c-0.469,1.25-6.553-29.502-0.026-30.626S153.948,264.928,153.357,266.501z"/>
	</g>
	<path id="top-2" style="display:inline;fill:#EDDE24;" d="M239.311,66.998c1.181,18.74-9.065,19.673-22.242,20.503
		s-24.291,1.244-25.472-17.497c-1.181-18.74,8.542-34.605,21.718-35.436C226.492,33.738,238.129,48.257,239.311,66.998z"/>
	<path id="top-1" style="display:inline;fill:#F91616;" d="M232.564,72.31c0.019,19.054-13.906,18.491-25.343,18.501
		c-11.436,0.012-16.051,0.594-16.07-18.459c-0.02-19.056,9.237-34.507,20.672-34.521C223.259,37.82,232.545,53.257,232.564,72.31z"
		/>
	<path id="top" style="display:inline;fill:#CCAA19;" d="M218.069,8.501c14.955-2.313,5.242,94.631-0.734,99.815
		s-15.095,2.117-20.036-4.349S210.163,9.724,218.069,8.501z"/>
	<g id="eye_1_" style="display:inline;">
		<path id="r-eye_2_" d="M242.024,166.501c-1.771-7.667,1.667-17.354,8.53-21.38C254.358,153.168,248.691,164.501,242.024,166.501z"
			/>
		<ellipse id="r-eye-white_2_" style="fill:#F7F2ED;" cx="248.854" cy="153.448" rx="2.183" ry="2.363"/>
	</g>
	<g id="eye_2_" style="display:inline;">
		<path id="l-eye_2_" style="fill:#020100;" d="M144.024,137.936c-9.863,2.419-0.075,26.334-0.075,26.334
			S148.69,136.791,144.024,137.936z"/>
		<ellipse id="eye-l-white" style="fill:#F7F2ED;" cx="144.364" cy="147.021" rx="1.514" ry="1.899"/>
	</g>
</g>
<g id="flamingo" style="display:none;">
	<path id="body_1_" style="display:inline;fill:#F900A6;" d="M176.258,210.458c-11.11,94.291,13.095,105.707-71.079,171.07
		c-42.153,43.774-64.82,196.636,55.703,205.973c145.66,11.284,142.51-109,142.476-128.077c1.274-30.923-7.892-40.593-49.665-79.259
		c-46.749-33.502-50.438-43.667-31.835-173.306c4.063-28.315,16.814-52.161,16.814-69.41c16.991-33.855,33.021-80.949-26.314-80.949
		c-53.476,0-43.734,42.333-35.731,82.333C175.465,157.647,181.081,192.767,176.258,210.458z"/>
	<path id="yellow" style="display:inline;fill:#FFFF00;" d="M204.026,149.122c4.835,11.333,38.537-26.184,35.478-6.288
		s-12.94,60.665-34.145,79.998c-25.419-7.972-30.891-58.798-28.732-83.998C177.998,122.828,204.026,149.122,204.026,149.122z"/>
	<path id="nose" style="display:inline;fill:#443F3B;" d="M205.258,169.499c4.009-6.488,20.06-4.243,27.136,4.104
		c-4.787,21.149-8.914,24.116-12.035,31.258c-4.251,4.142-15.986,39.211-24.913,42.838c-9.859-7.539-9.993-32.656-12.825-39.239
		c-1.331-17.669-5.964-20.543-6.268-44.957C186.608,156.001,205.258,169.499,205.258,169.499z"/>
	<g id="eye-r" style="display:inline;">
		<path id="r-eye-white_1_" style="fill:#FFFFFF;" d="M236.379,126.95c-4.891-7.241-3.272-18.789,4.869-25.885
			C249.052,107.843,244.898,122.049,236.379,126.95z"/>
		<ellipse id="r-eye_1_" style="fill:#020202;" cx="240.854" cy="113.448" rx="2.183" ry="2.363"/>
	</g>
	<g id="eye" style="display:inline;">
		<path id="l-eye-white_1_" style="fill:#FFFFFF;" d="M180.301,124.2c-7.19-4.965-9.882-16.312-4.88-25.883
			C185.156,101.792,186.454,116.536,180.301,124.2z"/>
		
			<ellipse id="l-eye_1_" transform="matrix(0.9315 -0.3637 0.3637 0.9315 -28.0431 71.8061)" style="fill:#020202;" cx="176.627" cy="110.359" rx="2.183" ry="2.364"/>
	</g>
</g>
<path id="arm" style="fill:#EABF86;" d="M227.358,379.501c-19.241,1.603-26.889,1.898-26.889,1.898
	s-15.763-7.212-23.333-8.676c-3.085-0.597-3.404-5.471-7.778-10c-3.183-3.295-16.667-15.556-4.444-14.445
	s30.098,9.653,32.222,12.222c3.722,4.5,13.222,4,27.222,1c12-2.571-23.889-1-18.333-7.667s5.833-8.833,21.833-3.333
	c6.399,2.2,8.64-3.708,22.611,7.778c68.389,56.222,92.389,51.222,98.889,59.222c9.5-9,5.5-47.5,24.444-82.556
	c7.853-14.531-6.755-43.214,34.556-59.464c33-12.98,51.5,42.02,44,62.52c-15.556,23.222-1.5,8-29.556,56.5
	c-7.717,14.494-31.111,42.666-39.444,54.666c-18.333,27.5-25.673,27.412-32,31.35c-12.5,2.316-6-4.516-30.889-17.793
	C312.358,460.501,238.469,375.057,227.358,379.501z"/>

</svg>
